<svg width="1600" height="1200" viewBox="0 0 1600 1200" fill="none" xmlns="http://www.w3.org/2000/svg">
<path d="M272.627 533.711C320.317 533.711 353.442 505.155 353.442 465.747C353.442 439.76 339.735 422.341 315.748 408.062L278.338 385.503C257.207 372.938 250.067 361.801 250.067 349.236C250.067 333.53 262.632 322.964 277.196 322.964C282.907 322.964 285.478 323.249 291.189 324.677L328.884 392.356H329.169L346.018 329.246C323.743 319.823 303.468 316.681 281.194 316.681C234.647 316.681 208.375 344.667 208.375 380.363C208.375 409.205 224.081 428.623 250.639 443.187L283.193 460.892C299.756 469.745 307.181 481.453 307.181 495.16C307.181 513.436 292.331 526.858 272.056 526.858C266.916 526.858 263.489 526.572 257.207 524.002L217.513 449.184H217.227L200.379 522.289C223.51 529.999 248.354 533.711 272.627 533.711ZM497.283 523.431V444.329C497.283 402.922 478.15 382.361 442.168 382.361C413.612 382.361 392.48 394.07 373.061 415.773L374.489 417.201C384.199 409.776 393.051 406.349 405.902 406.349C427.605 406.349 440.169 422.055 440.169 453.467C392.766 458.608 364.78 476.027 364.78 502.299C364.78 520.29 377.345 530.856 395.907 530.856C411.613 530.856 426.748 523.145 440.169 511.723V528H511.561V523.431H497.283ZM433.601 508.582C422.179 508.582 416.467 501.442 416.467 488.021C416.467 472.886 423.035 462.034 440.169 457.18V507.725C437.599 508.296 435.315 508.582 433.601 508.582ZM641.458 382.076C628.322 382.076 609.76 395.498 593.482 416.915V381.219L520.092 405.778L536.369 419.771V523.431H522.091V528H614.9V523.431H593.482V420.056C603.477 418.343 616.899 425.767 646.598 458.608H646.883V382.933C645.17 382.361 643.456 382.076 641.458 382.076ZM815.773 366.941C798.639 375.793 782.933 383.789 767.512 392.071C757.518 385.788 744.667 382.361 729.532 382.361C688.125 382.361 664.138 407.491 664.138 438.904C664.138 457.465 671.848 472.315 684.698 482.024C667.85 499.158 661.282 512.865 661.282 528.571C661.282 538.851 664.138 547.418 670.42 553.701C658.426 558.27 651.573 565.98 651.573 574.547C651.573 592.538 672.134 601.105 714.112 601.105C766.656 601.105 802.066 579.973 802.066 547.418C802.066 522.574 784.075 512.294 750.95 512.294H718.11C693.265 512.294 684.413 500.3 687.268 484.023C698.406 491.448 712.684 495.731 728.676 495.731C768.084 495.731 791.786 471.458 791.786 439.189C791.786 420.342 784.646 404.636 771.225 394.641C784.075 397.496 802.351 406.349 815.773 414.345L816.059 414.059V367.227L815.773 366.941ZM749.522 487.45C740.955 487.45 730.103 478.312 713.541 447.756C702.118 426.624 696.407 412.631 696.407 402.637C696.407 394.641 701.547 390.072 707.544 390.072C716.396 390.072 726.391 399.781 743.239 429.765C755.233 451.183 760.373 465.747 760.373 474.885C760.373 483.166 756.09 487.45 749.522 487.45ZM708.686 565.409H739.527C762.087 565.409 770.368 568.836 770.368 575.404C770.368 585.97 752.949 593.966 730.96 593.966C701.832 593.966 678.987 581.686 672.134 555.129C679.844 561.697 691.838 565.409 708.686 565.409ZM952.961 523.431V444.329C952.961 402.922 933.828 382.361 897.846 382.361C869.29 382.361 848.158 394.07 828.74 415.773L830.167 417.201C839.877 409.776 848.729 406.349 861.58 406.349C883.283 406.349 895.847 422.055 895.847 453.467C848.444 458.608 820.458 476.027 820.458 502.299C820.458 520.29 833.023 530.856 851.585 530.856C867.291 530.856 882.426 523.145 895.847 511.723V528H967.239V523.431H952.961ZM889.279 508.582C877.857 508.582 872.145 501.442 872.145 488.021C872.145 472.886 878.714 462.034 895.847 457.18V507.725C893.277 508.296 890.993 508.582 889.279 508.582ZM1031.74 530.856C1066.87 530.856 1096.85 512.579 1096.85 482.881C1096.85 465.176 1086.57 450.897 1066.87 440.331L1045.45 428.909C1028.6 420.056 1024.03 412.917 1024.03 402.922C1024.03 394.926 1030.31 387.787 1042.88 387.787C1044.31 387.787 1046.3 388.073 1047.73 388.644L1080.86 435.762H1081.14L1092.28 390.643C1078.29 385.503 1063.44 382.361 1044.88 382.361C1006.9 382.361 983.48 401.209 983.48 430.051C983.48 451.754 994.903 465.176 1018.6 477.74L1037.45 487.735C1049.45 494.018 1054.59 498.872 1054.59 507.439C1054.59 519.147 1046.02 525.715 1033.45 525.715C1030.03 525.715 1028.03 525.43 1024.03 524.288L988.621 476.884H988.335L979.482 523.431C999.472 529.428 1018.32 530.856 1031.74 530.856ZM1160.58 530.856C1195.7 530.856 1225.69 512.579 1225.69 482.881C1225.69 465.176 1215.41 450.897 1195.7 440.331L1174.29 428.909C1157.44 420.056 1152.87 412.917 1152.87 402.922C1152.87 394.926 1159.15 387.787 1171.72 387.787C1173.15 387.787 1175.14 388.073 1176.57 388.644L1209.7 435.762H1209.98L1221.12 390.643C1207.13 385.503 1192.28 382.361 1173.72 382.361C1135.74 382.361 1112.32 401.209 1112.32 430.051C1112.32 451.754 1123.74 465.176 1147.44 477.74L1166.29 487.735C1178.29 494.018 1183.43 498.872 1183.43 507.439C1183.43 519.147 1174.86 525.715 1162.29 525.715C1158.87 525.715 1156.87 525.43 1152.87 524.288L1117.46 476.884H1117.17L1108.32 523.431C1128.31 529.428 1147.16 530.856 1160.58 530.856ZM1318.83 530.856C1373.09 530.856 1399.65 497.444 1399.65 455.752C1399.65 410.918 1365.67 382.361 1318.55 382.361C1272 382.361 1240.02 414.916 1240.02 455.752C1240.02 501.728 1277.71 530.856 1318.83 530.856ZM1350.82 520.575C1327.4 520.575 1278 434.62 1278 406.635C1278 397.782 1282.28 392.642 1289.42 392.642C1314.55 392.642 1362.52 482.024 1362.52 506.011C1362.52 515.721 1358.53 520.575 1350.82 520.575ZM429.644 665.393H328.839L354.254 680.813V866.431H331.409V871H425.931C501.321 871 548.439 833.305 548.439 765.626C548.439 700.517 504.747 665.393 429.644 665.393ZM421.648 866.431H417.079V669.962H424.218C461.627 669.962 482.759 703.373 482.759 765.912C482.759 829.307 458.486 866.431 421.648 866.431ZM697.886 845.014C695.316 845.585 692.46 845.87 689.604 845.87C670.471 845.87 649.911 835.304 633.633 819.313C667.901 806.462 686.178 785.616 686.178 761.914C686.178 741.068 667.616 725.361 640.773 725.361C595.082 725.361 567.097 759.915 567.097 801.608C567.097 845.87 600.222 873.856 640.487 873.856C667.045 873.856 686.178 863.575 698.171 845.299L697.886 845.014ZM614.215 735.356C626.494 735.356 643.057 756.488 643.057 781.332C643.057 795.896 639.916 807.319 631.92 817.599C614.786 799.894 602.507 775.907 602.507 752.205C602.507 741.639 606.79 735.356 614.215 735.356ZM760.398 873.856C795.522 873.856 825.507 855.579 825.507 825.881C825.507 808.176 815.226 793.897 795.522 783.331L774.105 771.909C757.257 763.056 752.688 755.917 752.688 745.922C752.688 737.926 758.97 730.787 771.535 730.787C772.963 730.787 774.962 731.073 776.39 731.644L809.515 778.762H809.801L820.938 733.643C806.945 728.503 792.096 725.361 773.534 725.361C735.554 725.361 712.137 744.209 712.137 773.051C712.137 794.754 723.56 808.176 747.262 820.74L766.109 830.735C778.103 837.018 783.243 841.872 783.243 850.439C783.243 862.147 774.676 868.715 762.111 868.715C758.684 868.715 756.685 868.43 752.688 867.288L717.277 819.884H716.992L708.139 866.431C728.129 872.428 746.976 873.856 760.398 873.856ZM878.1 717.651C898.375 717.651 909.798 704.801 909.798 685.668C909.798 666.821 898.375 653.97 878.1 653.97C857.825 653.97 846.402 666.821 846.402 685.668C846.402 704.801 857.825 717.651 878.1 717.651ZM835.265 871H920.935V866.431H906.657V722.506L833.266 748.207L849.543 762.199V866.431H835.265V871ZM1087.4 709.941C1070.26 718.793 1054.56 726.789 1039.13 735.071C1029.14 728.788 1016.29 725.361 1001.15 725.361C959.747 725.361 935.76 750.491 935.76 781.904C935.76 800.465 943.47 815.315 956.32 825.024C939.472 842.158 932.904 855.865 932.904 871.571C932.904 881.851 935.76 890.418 942.042 896.701C930.048 901.27 923.195 908.98 923.195 917.547C923.195 935.538 943.756 944.105 985.734 944.105C1038.28 944.105 1073.69 922.973 1073.69 890.418C1073.69 865.574 1055.7 855.294 1022.57 855.294H989.732C964.887 855.294 956.035 843.3 958.891 827.023C970.028 834.448 984.306 838.731 1000.3 838.731C1039.71 838.731 1063.41 814.458 1063.41 782.189C1063.41 763.342 1056.27 747.636 1042.85 737.641C1055.7 740.496 1073.97 749.349 1087.4 757.345L1087.68 757.059V710.227L1087.4 709.941ZM1021.14 830.45C1012.58 830.45 1001.73 821.312 985.163 790.756C973.74 769.624 968.029 755.631 968.029 745.637C968.029 737.641 973.169 733.072 979.166 733.072C988.018 733.072 998.013 742.781 1014.86 772.765C1026.86 794.183 1032 808.747 1032 817.885C1032 826.166 1027.71 830.45 1021.14 830.45ZM980.308 908.409H1011.15C1033.71 908.409 1041.99 911.836 1041.99 918.404C1041.99 928.97 1024.57 936.966 1002.58 936.966C973.454 936.966 950.609 924.686 943.756 898.129C951.466 904.697 963.46 908.409 980.308 908.409ZM1257.39 866.431V768.196C1257.39 739.069 1244.82 723.934 1220.55 723.934C1201.13 723.934 1184.57 735.071 1166.01 751.062V722.506L1092.62 748.207L1108.9 762.199V866.431H1094.62V871H1177.43V866.431H1166.01V755.06C1171.72 752.49 1177.43 750.777 1183.14 750.777C1194.85 750.777 1200.28 758.202 1200.28 780.476V866.431H1188.85V871H1271.67V866.431H1257.39Z" fill="white"/>
</svg>
